<svg width="80" height="60" viewBox="0 0 80 60" fill="none" xmlns="http://www.w3.org/2000/svg">
<path d="M30 0C46.5685 0 60 13.4315 60 30C60 46.5685 46.5685 60 30 60C13.4315 60 0 46.5685 0 30C0 13.4315 13.4315 0 30 0ZM79.7402 53H60C66.5649 47.4968 70.7402 39.2366 70.7402 30C70.7402 20.7634 66.5649 12.5032 60 7H79.7402V53ZM35.5 29C32.1863 29 29.5 31.6863 29.5 35C29.5 38.3137 32.1863 41 35.5 41C38.8137 41 41.5 38.3137 41.5 35C41.5 31.6863 38.8137 29 35.5 29ZM17 18C13.134 18 10 21.134 10 25C10 28.866 13.134 32 17 32C20.866 32 24 28.866 24 25C24 21.134 20.866 18 17 18ZM38 7C33.0294 7 29 11.0294 29 16C29 20.9706 33.0294 25 38 25C42.9706 25 47 20.9706 47 16C47 11.0294 42.9706 7 38 7Z" fill="#D9D9D9"/>
</svg>
